<svg xmlns="http://www.w3.org/2000/svg" viewBox="0 0 900 300"><defs><style>.cls-1,.cls-11{fill:#bdccd4;}.cls-2{fill:#e52521;}.cls-3,.cls-9{fill:#57b031;}.cls-12,.cls-4{fill:#44c1ef;}.cls-10,.cls-5{fill:#fcc00c;}.cls-6{fill:#1e1e1c;}.cls-6,.cls-7,.cls-8{stroke:#1e1e1c;stroke-miterlimit:10;}.cls-6,.cls-7{stroke-width:0.1px;}.cls-7{fill:#ececec;}.cls-8{fill:none;}.cls-9{font-size:66px;font-family:Pitviper-Regular, Pitviper;}.cls-10,.cls-12{letter-spacing:0em;}.cls-11{letter-spacing:0em;}</style></defs><title>banner-software</title><g id="ElisaBot"><path class="cls-1" d="M142.55,60.74l-18.61,91.64a80.34,80.34,0,0,1,34.74,0Q150.63,106.56,142.55,60.74Z"/><circle class="cls-2" cx="142.54" cy="60.75" r="12.94"/><path class="cls-3" d="M102.4,221c-3.28,1.9-13.71,7.4-23.31,3.52-16.15-6.53-15.51-33.35-15.4-36.3,1.23-33.15,35.2-63.47,49.9-57.8,4.22,1.62,8.6,6.88,10.35,22Z"/><path class="cls-2" d="M183.3,220.09c3.29,1.9,13.71,7.4,23.31,3.52,16.15-6.53,15.51-33.35,15.4-36.3-1.23-33.15-35.19-63.47-49.9-57.8-4.22,1.62-8.6,6.88-10.35,22Z"/><circle class="cls-4" cx="142.61" cy="176.87" r="59.7"/><path class="cls-5" d="M82.92,187l19.48,84.92V187l40.14-69.82c-4.39-.22-25.06-.8-42,14.55C77,153,82.56,185.13,82.92,187Z"/><path class="cls-5" d="M201.15,187l-19.49,84.92V187l-40.14-69.82c4.39-.22,25.06-.8,42,14.55C207.11,153,201.5,185.13,201.15,187Z"/><path class="cls-5" d="M87.69,153.41l-15.2,6.1a49,49,0,0,1,11.7-21.2,49.92,49.92,0,0,1,28.12-14.73Z"/><path class="cls-5" d="M197.63,152.85l15,4.56A46.92,46.92,0,0,0,199.8,137.5a48,48,0,0,0-29.3-12.21Z"/><circle class="cls-6" cx="118.65" cy="183.42" r="6.17"/><circle class="cls-6" cx="163.89" cy="183.42" r="6.17"/><circle class="cls-7" cx="116.81" cy="181.08" r="1.84"/><circle class="cls-7" cx="162.31" cy="181.08" r="1.84"/><path class="cls-8" d="M124.44,212.85a40.3,40.3,0,0,0,33.78,0"/></g><g id="Bob"><text class="cls-9" transform="translate(273.98 198.23)">E<tspan class="cls-2" x="77.29" y="0">L</tspan><tspan class="cls-4" x="134.11" y="0">I</tspan><tspan class="cls-10" x="149.49" y="0">S</tspan><tspan class="cls-11" x="228.36" y="0">A</tspan><tspan class="cls-2" x="309.21" y="0">B</tspan><tspan class="cls-5" x="389.92" y="0">O</tspan><tspan class="cls-12" x="467.21" y="0">T</tspan></text></g></svg>